<?xml version="1.0" encoding="utf-8"?>
<!-- Generator: Adobe Illustrator 24.0.3, SVG Export Plug-In . SVG Version: 6.00 Build 0)  -->
<svg version="1.1" id="Layer_1" xmlns="http://www.w3.org/2000/svg" xmlns:xlink="http://www.w3.org/1999/xlink" x="0px" y="0px"
	 viewBox="0 0 1825.8 560" style="enable-background:new 0 0 1825.8 560;" xml:space="preserve">
<g>
	<path d="M794.5,306.5l-5.4-1.6c0.3-0.5,0.5-0.9,0.8-1.3l11.6-7.7l-0.2-9.4l4.8-3.6l-0.1-8.4c0.4-1.1,0.8-2.1,1.2-3.2l4.9-2.4
		l-2.5-4.2l8.5-5.9l-4.8-3.1c0.7-1.6,1.4-3.3,2.1-4.9l9.6-13.6l-4.4,1.9c1.1-2.2,2.2-4.5,3.2-6.7c0.7-1.6-0.1-3.2-1.3-3.8l0.3-0.5
		l-0.8,0.3c-0.4-0.1-0.8,0-1.2,0.1c-0.7,0.3-1.4,0.6-2.1,1c1-2.1,2-4.2,2.9-6.3c1-2.2-0.9-4.6-3-3.8c-2.3,0.9-4.7,2.3-6.3,4.1
		c-2.6,2.9-4.7,6.2-6.8,9.5c-0.7,1.1-1.4,2.1-2.1,3.2l0.3-11.1l-5.8,19.8l-0.4-2.5l-0.3,1.5l-1.9-10.6l-5.1,25.6l-0.1-0.6l-0.8,3.3
		l-1.4-12.3l-7,30.3l-0.5-3.4l-0.5,2.8l-1.7-11.9l-4.1,25.2l-0.6-2.6l-0.1,0.2l-2.1-9.3l-8.9,31.1l-0.5-3.6l-0.6,2.1l-1.6-11.2
		l-9.9,35.7l-0.4-3.5l-0.9,3.4l-1.3-12.4l-8.7,34.3c-0.4,0.8-0.9,1.7-1.3,2.5l-0.6-12.3l-5.9,26.9c-4.2,8.2-8.6,16.3-13,24.5
		c-0.1,0.3-0.2,0.5-0.4,0.8c0.1-5.7,0.3-11.5,0.5-17.2c0.2-4.7,0.2-9.4,1-14.1c1.3-7.6,3-15.1,4.7-22.6c0.5-2.2,2-4.2,2.6-6.4
		c1.5-5.8,2.4-11.7,4.3-17.4c3.3-9.9,7.2-19.6,10.8-29.4c4.1-11.2,7.1-22.6,6.6-34.9c-0.1-3.6-0.9-6.7-2.2-9.2
		c-0.4-9.5-5.2-15.2-13.2-18.5c-4-1.7-8.5-2.2-12.8-3.3c-1.3-0.3-2.5-0.6-3.8-1c6-9.7,12.1-19.4,17.5-29.4l13.8-21.5l-3.2-0.8
		c0.4-1,0.8-1.9,1.1-2.9l9.6-13.3l-4.7-0.3c0.1-0.4,0.3-0.9,0.4-1.3l8-14l-5.7,3.5c0.1-0.6,0.1-1.3,0.2-2l2.4-9l0.9-1.5l-0.6,0.3
		l1.8-6.7l-4.9,6.8l-0.5-3.8l3.2-12.1l-4.1,5.8l-1.1-7.4l-0.8,0.9l-1.4-10l-5.1,6.1l-6.2-11.6l-1.2,8.8c-0.3-0.1-0.5-0.2-0.8-0.2
		l-7.7-8.8l-0.5,7.4c-0.8,0-1.5,0-2.3,0.1l-9-3.3l-0.9,6.7l-10.5,0l6.7,4l-12,5.5l4.6,3.2c-0.3,0.4-0.7,0.8-1,1.2l-12.4,6.9l4.4,1.7
		l-10.6,9.9l5.4,1l-10.6,12.1l6.1-1.9l-9.1,17.1l5.5-2.8c-0.1,0.4-0.2,0.8-0.3,1.1l-6.7,14.3l3.2-0.1c-0.3,2.6-0.5,5.2-0.5,7.9
		l-0.6,1.3l0.6,0c0.2,4.9,1.1,9.8,2.7,14.6c0.7,4.5,1.9,9,3.9,13.4c1.4,3.2,2.7,6.4,4,9.6l-5,0.4L680,243l-4.7-2.9l-6.9,16l-2.6-5
		l-5.5,13.4l-3.7-4.3l-4.5,12.3c0,0,0,0,0,0l-3.7-5l-7.3,13.5c-0.2,0.1-0.3,0.2-0.5,0.4l-1.1-4.3l-8.7,11.4
		c-0.3,0.2-0.6,0.4-0.9,0.5l-0.7-3.8l-6,5.6l-1.3-4.4c0.1-0.4,0.1-0.8,0.2-1.2l4.5,0.2l-2.8-7.8c0.1-0.3,0.1-0.5,0.2-0.8l5.3-0.1
		l-2.9-7.6c0.1-0.4,0.3-0.8,0.4-1.2l2.7,0.5l0.3-8.8c1.1-2.9,2.6-6.3,7.7-6.6c6.4-0.4,16.2-6.3,20.4-11.3c4.3-5,4.5-5.3,7.8-10.7
		c3.9-6.5,5.4-14.3,4.6-21.2c-0.6-5-1.4-6.5-2.1-8.5c-2.2-6.3-8.8-8.9-14.6-9.6c-9.8-1.2-19.1,0.7-25,9.9c-0.3,0.4-0.7,0.8-1,1.3
		c-0.9,1.7-1.8,3.4-2.8,5.1l-0.1-5.7l-6.4,17.3l-0.1-5.6l-8.8,22.4l0.5-7.8l-7.1,12.3l-0.8-4.1l-8.3,10.5c0,0,0,0-0.1,0l0.5-2.1
		l1.4-0.2l-1-1.1l0.4-1.8l-1.1,1.1l-5.8-6.2l5.4-1l-2.1-2.3l3.4,0.1l-6-2.9l-4.1-4.4c-0.3-0.7-0.6-1.4-0.9-2l8.7,0.2l-15.7-7.5
		c-1.5-1.2-3.2-2.3-4.9-3.2l6.1-1l-17.5-4c-0.8-0.2-1.6-0.4-2.4-0.6l8.5-3.9l-20.6,3.4l0.1,0.1c-7.7,1.2-14.6,5.1-20.5,11.4
		c-7.2,7.8-12.9,17-19,25.7l-2.9-9l1.2,1.2l-4.8-14.7l4.9,0l-7.1-6.9l-0.7-2.3l5.6,0l-7.7-7.4c-3.3-5.5-9.9-7.3-16.3-7.5
		c-2.6-0.1-4.1,1.4-3.4,4.5c0.5,2.4,0.5,5,0.5,7.5c0,11.3-0.4,22.6,0.1,33.8c0.3,6-2.2,11-4.3,16.1c-2.9,7.1-7.1,13.7-10.2,20.8
		l-2-9.3l-5.3,27.6l-2.8-11.6l-5.7,32.4c-0.1,0.1-0.1,0.3-0.2,0.4l-4.8-7.7l-2.2,25.6l-5.4-9.6l-0.5,24c-0.3,0.6-0.5,1.2-0.8,1.7
		l-3.1-5.5L418.2,370l-1.7-3.6l0.5-3.3l-2.3-5l5.3,0.3l-3.3-9.1l1.1,0.1l-4.6-12.9c0-0.2,0-0.4,0-0.6l5.4,2l-2.8-34.1l4.8,3.5
		l-2.5-15.8c0-0.3,0.1-0.5,0.1-0.8l3.6,1.7l-1.4-13.5c0.2-1.1,0.4-2.1,0.6-3.2l3.3,2.6l0.9-12.9l0.1-15.6l4.3,1.9l-1.2-22.2l3.9,0.3
		l-1.8-16.9l7.7-1.1l-9.8-7.5l-0.1-0.5l7.7-1.1l-6-4.5l0.5-0.7l-1,0.3l-5.2-3.9l4-5.4l-9.3,2.7c-0.2-0.1-0.3-0.1-0.5-0.2l3.5-5.5
		L406,190l-2.5-7.8l-1.9,26.1l-3.7-10.9l-5,25.8l-1.4-10.9l-8.8,30.2l-2.5-8.5l-8.9,27.4l-1.7-9.7l-5.3,24.7
		c-4.1,9-10,16.7-15.6,24.7l-3.7,1.1c0-0.1,0-0.2,0-0.3l7.7-16.5l-6.2-0.6l4-8.5l-0.5,0l5.1-10l-6.5,3l1.3-6.2l3-5.9l-2,0.9
		l2.6-12.9l-3.3,4.2c-0.1-2,0.6-9.4,0.6-13.7s-0.1-4.5-0.6-8.5s-2.1-9.6-2.1-9.6l6,2.3l-6-13l17.9,6.5l-16.1-9.9l14-1l-14.5-2.6
		l11.7-7.5l-24,8.6c-0.5,0.1-1.1,0.2-1.6,0.3l8.8-10.5l-15.9,12c-0.2,0-0.4,0.1-0.6,0.1l7.9-9.8l-18.2,12.5c-0.2,0-0.3,0.1-0.5,0.1
		l4.2-6.7l-15.1,10c-5.6,1.7-11.3,3.4-17,4.9l7.5-9l-18,11.6l-4.4-6.4l-15.1,15.1c-0.8,0.5-1.5,1-2.2,1.5l-2.7-5.3l-16.9,13.2
		c-0.4,0.2-0.9,0.4-1.3,0.6l-1.3-4.5l-13,11.2l0.2-0.1c-1.2,0.9-2.4,2.1-3.2,3.7c-0.6,1.1-3.2,1.9-4.5,1.6c-2.9-0.8-5.6-2.2-8.2-3.7
		c-6.7-4-13.3-8.1-19.8-12.3c-4.6-3-9-6.1-12.9-9.8l0.4-0.3l-4.9-4.4c-0.5-0.5-0.9-1.1-1.4-1.6l4-3.1l-1.9-1.7l-2.3-11.4
		c0-0.1,0.1-0.2,0.1-0.3l4.2,1.6l1.3-12c0.3-0.4,0.6-0.9,0.9-1.3l5.4,2.3l3.4-12.4c0.4-0.4,0.8-0.7,1.1-1.1l2.8,3.1l4.6-9.9
		c0.2-0.1,0.3-0.3,0.5-0.4l4.7,4.4l5.5-12.7l3.3,4l10.2-12.8l3,4.3l9.9-11.3c0,0,0.1,0,0.1-0.1l2.5,4.5l11.6-10.3
		c0.1-0.1,0.3-0.1,0.4-0.2l2.2,6.1l12.9-10.5c0.3-0.1,0.6-0.2,0.9-0.2l1.4,5.2l13.2-6.5c0,0,0.1,0,0.1,0l2.3,6.7l6.1-5.4
		c0.2-0.1,0.3-0.1,0.5-0.2l4.4,6.1l0.3-11.8c0,0,0-0.1,0-0.1l6.1-0.6l-8.3-8.4v0c0,0,0-0.1,0-0.1l6.1-0.6l-3.1-3.2l0.7-0.3l-7.2-7
		l5-2.1L281,100l1.9-1.7l-3.4,0.3l-4.1-4l12.6-11l-11.8,6l-8.7,0.8l18.3-15.8L259,88.2l1.6-4.1l-6.9,6.8l-2.1,1l6.7-16.9l-21.6,21.3
		l13.7-22.7l-16.2,16.1l-0.1-0.4l-6.2,6.5l2.1-7.2l-8.2,11.8l6-20.8l-16.5,23.7l2.3-12.7l-5.9,12l3.7-21.1l-18.9,38.2l-3.8-7.1
		l-12.1,19.2l-5.2-5.3l-5.5,16.9l-6.2-5.2l-3.6,19.4c-0.1,0.2-0.2,0.4-0.4,0.7l-7.2-5.1l-0.6,23.9c0,0.1,0,0.1-0.1,0.2l-9.8-1.4
		l2.9,9.2l-0.7-0.1l4.8,15.3l-7.6,2.2l6.4,7.8l-4.2,1.2l10,12.2l-3.9,2.2l8.7,5.3l-6.5,3.7l21.7,13.3c5,4.8,10.6,9.1,16.7,12.8
		l-7.3,5.8l-3.8-7.6L167,277c-0.1,0-0.1,0.1-0.2,0.1l-1.8-8.8l-8.4,13.7l-2.8-6.3l-7.8,17.2l-5-9.7l-12.5,29L117.1,295l5.7,25.1
		l-5.4-3.9l-1.2,8.6l-4.4-3.9l-3.1,12.2l-5-2.1l-6.4,15.7l-7.1-5.8l-2.2,17.2l-7.2-3.8l-0.7,14.8l-6.4-3.4l-0.3,20.6l-7.7-2.2
		l1.6,19l-6.9,0l3.1,9.1l-0.9,0l3.9,11.7l-6.1,0.1l6.4,9l-3.3,0.1l-10-8.8l11.5,17.2l-0.1,0l-9.2-8.1l4.3,6.4l-10.4-3.6l10.6,12
		l-8.4-2.9l10.8,12.2l-2.1-0.1l4.2,2.4l6.2,7l-8.2-0.4l6.3,3.7l-20.4,2.4l33.4,5.4L51,481.6l7.5,1.2l-2.2,0.1l11.1,1.3l34.5,5.6
		L58.5,492l22.5,2.7l-12,1.7l21.9-0.5l25.8,3.1l-45.5,6.5l26.4-0.6l-8.6,2.4l32-3l10.3-0.3l-14,5.1l-26.1,7.2l44.9-4.2l-21.9,7.9
		l38.5-5.9l-1.4,3.8l4.8-4.3l2.5-0.4l-5.1,13.8l14.2-12.8l-3,5.7l16.1-16.9l-13.9,26l16.3-17.1l0,1.5l1-2.6l0.9-1l0.3,12.6l9.3-23.9
		l6.2,22.7l-0.4-12.5l3.1,5.3l0.1-16.9l5.5,16l2.6-19.2c0,0,0.1,0,0.1-0.1l4.2,10.6l4.2-13.9l3.9,4.4l16.3-16l3.5,9.3l15.4-20.1
		l2.7,6l12.4-18.9c0,0,0,0,0.1-0.1l4.6,4.4l10.5-19.8c0.3-0.4,0.6-0.7,0.9-1.1l3.6,4.9l7.6-18.3l4.1,1.6l5.3-17.4
		c1.8-3.6,3.5-7.4,4.8-11.3c3.5-10.3,5.1-20.6,3.8-31.3c-0.5-4.5-1.5-8.7-2.8-12.9c-2.5-13.9-8.7-26.2-17.3-37.4
		c-13.5-17.5-30.1-31.6-48.3-43.9c-3.8-2.6-7.6-5.3-11.4-8c0.7-0.4,1.4-0.8,2-1.2l32.5-12.6l-6.2-3.8l36.9-11.2l-9.9,1.2
		c3.5-1.6,6.8-3.6,10.4-5.1c6.8-2.7,19.8-11.1,22-8c2.2,3.1,0.5,13.2,0.5,13.2l-4.2-8.8l2.4,26.7l-4.8,0.1l1.9,19.1l-6.2-0.3
		l2.9,9.1l-0.7,0l5.8,18.3c0.3,1.9,0.9,3.7,1.6,5.4c0.2,1.2,0.3,2.3,0.5,3.5c1,6.1,4.1,11.4,9.4,14.4c5,2.8,10.7,5.1,16.3,6.2
		c3.3,0.6,7.8-0.6,10.7-2.6c7.8-5.2,11.8-13.7,16.3-21.5c4.4-7.6,7.7-15.8,11.5-23.7c0.2-0.5,0.6-0.9,0.8-1.4
		c1.8-4.3,3.7-8.7,5.4-13c-0.5,2.4-1,4.7-1.5,7.1c-2.1,10.5-4.4,21-5.8,31.6l-4.2,20.9l3.2-1.1c0,1.2,0,2.5,0,3.7l-0.5,3.8l-0.5,2.7
		l0.2-0.1l-2.5,18.2l3.7-3.6l0,1.2l-1.6,11.5l1.7-1.7l0.1,7.5l2-1.8l0.2,10.9l2.8-2.5l1.2,9.4l0.9-1.5l1.3,10.6l2.3-3.9l8.2,14.2
		l2-3l8.4,9.2l2.1-7.7c1.4-0.1,2.7-0.3,3.6-1c0.1-0.1,0.2-0.1,0.3-0.2l10.5-1.7l0.4-6.3c0.4-0.4,0.8-0.7,1.1-1.1l11.2-3.7l-4.9-4.2
		c0.2-0.3,0.4-0.5,0.6-0.8l8.5-7.7l-4.9,26.7l-2-7.5l-3.6,28.1l-2-6l-3,27.8l-3.9-8.5l0.5,28.1l0.8-0.9c0,0.5,0,1,0,1.4l-0.8-0.5
		l-9-6.9l7.6,13.2l-5.4-4.1l7.4,12.9l-8.6,1.5l10.8,2.4l1.2,2.1l-4.6,3.7l-5.2,0.9l3.2,0.7l-3.2,2.6l4.9-2.2l8.9,2l-11.6,9.3
		l15.9-7.3l0.2,1.8l1-1l1.2,10l10.2-10.3l-3.6,12.8l9.4-13.2c0.8-0.2,1.6-0.4,2.4-0.7l5,7l3.4-12.8l22.7-24.2l-10.6,2.6l-0.2,0.2
		c0-0.1,0-0.2,0.1-0.3l0.1,0.1l3.3-6.3l5-5.4l-2.5,0.6l6.2-11.8l-7,2.9l12.3-23.4l-6.2,1.8l9.8-24.6l-6,0.4l3.8-9.5l-3.5,0.3
		l4.1-21.2l-4.4,2.4l2.2-11.5l-0.9,0.5l4.2-23.8l-4.3,2.7l1.2-6.5l2.9-8.6l-4.5-2.2l2.3-6.9l-1.5-0.8l3.6-22.2
		c-1.2,1.7-2,2.7-2.7,3.8c-0.4-1.2-0.3-2.2,0-3.1c4.6-11.2,8.4-22.9,14-33.5c5.1-9.7,11.8-18.7,18.5-27.3c2.7-3.5,7.6-5.3,11.6-7.7
		c0.7-0.5,2.5-0.7,2.6-0.4c4.7-1.3,5.3-1,5.3-1c4.7-1,8.9,1.2,11.3,5.2c0.6,0.9,1.1,1.9,1.6,3c0.4,5.3,0.2,10.7,0.4,16.1
		c0.1,2.5-0.7,3.7-3.1,4.7c-1.3,0.6-2.7,1.1-4,1.7l2.7-3.7l-3.1,2l-9.1,5.9c-0.4,0.2-0.7,0.3-1.1,0.5l3.2-5.1l-14.3,9.9
		c0,0-0.1,0-0.1,0.1l0.6-4.2l-8.4,7.4c-0.7,0.3-1.3,0.7-2,1l0.7-4.4l-2.7,2.9l-8.5,9.3l0.2-6.2l-7.5,16.6c-1.9,3-3.1,6.6-3.8,10.1
		c-1.2,5.6-0.8,11.4,1.6,16.5c0.2,3.4,0.9,6.6,2.5,9.7c0.9,1.8,4,3,6.4,3.6c7.8,1.8,15.7,4.5,23.5,4.2c8.2-0.4,17-2.3,22.5-9.9
		c2.7-3.8,5.3-7.7,7.8-11.7l1.9,6.2l3.7-17c0.1-0.1,0.1-0.3,0.2-0.4l1.6,7.2l4.2-17.3c0.3-0.8,0.6-1.6,0.8-2.5l2.6,4.6l0.1-15.1
		c0-0.2,0.1-0.3,0.1-0.5l2.9,3.5l0.3-12.1c3-1.9,6.1-3.7,9.3-5.6c-1.2,8.5-1.1,17,1.1,25.5c0.2,0.9,0.6,1.8,1,2.7
		c0.3,2.1,0.7,4.3,1.2,6.4c2.3,9.1,13.8,16.2,23.3,15.4l9.5,0.7l-3.8-2.4l16.4-5.5l-7.4,0.1c0.7-0.5,1.4-0.9,2.1-1.4l23.2-11.4
		l-8.5,0.1l17.1-13.4l-4.7,0.1l15.9-13.4l-5.1,0.8c0.7-0.9,1.4-1.8,2.1-2.7l14.2-14l-7.2,3.3c2-3.4,3.9-6.8,5.8-9.9
		c4.4,1.3,8.7,2.5,13.1,3.7c3.1,0.9,6.3,1.3,9.3,2.5c1.7,0.7,3,1.5,4.1,2.6c-0.6,3.2-1.7,6.4-2.8,9.5c-0.8,2.3-1.6,4.6-2.4,6.9
		l-4.6-9.6l0.3,16.7l-8.7,0.9l3.1,13.7l-6.5,0.1l2.5,17.4l-13,3.1l3,8.9l-0.8,0.2l3.8,11.2l-7.1,0.1l2.4,9.1l-0.2,0l1.4,5.3
		l-12.9-5.5l5.5,10.5l-3.3-1.4l8,15.3l-7.6-0.4l5.6,9.3l-3.4-0.2l3.8,6.4l-10.8,2l9.5,7.7l-7.3,1.4l6.2,5.1l-2.4,1l6.2,7.4l-4,1.7
		l12.6,15l0.4-1.8c2.3,3.5,5.7,6.4,9.1,9.1c4.6,3.6,10.2,1.3,15.4,0.2c6-1.4,9.5-6.5,12.2-11c6.8-11.2,12.8-22.9,18.1-34.9
		c1.6-3.7,3.9-7.1,5.3-11l17-30.2l-6.2,0.1l15.9-18.9l-6.9-2c0.3-0.7,0.6-1.4,1-2.1L794.5,306.5z M640.4,216.9
		c2.4-4.1,4.8-6,8.6-6.6c1.9-0.3,5.2,0,3.6,6.4c-1.6,6.5-13,12.3-20,15.8C632.6,232.5,638,221,640.4,216.9z M268.5,316.7l8.7,12.6
		l1.1-3.9l10.3,19.8l3.7-3.4l5.4,19.8l-10,22.8l7.8-3.6l-0.6,1.4l-15.2,14.3l10.1-1.8c0,0-0.1,0.1-0.1,0.1l-18.9,15l7,1.1
		l-24.5,16.5l9.1,0.3l-26.7,10l3.8,6.1l-17.7,0.7l3.2,9l-1,0l0.3,0.8l-24.2,0l7.1,6.9l-27.2,1.3l1.8,7l-25.2-3.7l1.3,7.8
		c-0.3,0-0.6,0-0.9,0l-18.1-7.5l-0.3,7.3c-0.4-0.1-0.8-0.1-1.1-0.2l-14.3-10.1l-2.4,4.9c0,0-0.1,0-0.1-0.1l-13.8-16.6l-8.8,2.5
		c-3.6-2.6-6.4-6.2-8.5-9.5c-0.3-0.4-0.5-0.9-0.8-1.4c-0.1-1.5-0.1-3,0-4.4c0.4-8.7,1.9-17.4,3.6-26c0.8-4.3,3-8.3,4.9-12.3
		c3.3-6.6,6.7-13.2,10.5-19.6c7.8-13.1,17.7-24.7,27.7-36.2c6.4-7.4,13.5-14.3,20.5-21.3c4.7-4.8,9.3-9.8,14.5-14
		c5.6-4.5,12.1-8.1,17.9-12.3c2.7-1.9,5-4.5,8.1-7.4c3,0,6.3-2.7,9.8-4.8c2.8-1.6,5.5-3.3,8.3-4.8c0.5-0.3,1.5,0.1,2.2,0.3
		c1,0.4,2,0.9,2.9,1.5C236.3,293,253.2,303.9,268.5,316.7z M476.3,384.4c-0.3,23.3-2,46.4-9.1,68.7c-1.7,5.5-4,10.8-6.5,16
		c-0.6,1.3-2.6,2.6-4.1,2.7c-1,0.1-1.8-0.2-2.4-0.9c0.1-5,1.5-9.8,2.1-14.6c1.2-9.9,3.7-19.6,6.1-29.3c2.4-9.8,5.5-19.4,8.1-29.2
		c1.6-6,2.5-12.2,4-18.2c0.5-2.1,1.1-4.3,1.8-6.4C476.3,377,476.3,380.7,476.3,384.4z M472.7,325.5c-3.2,8.9-6.9,17.7-9.7,26.8
		c-3.6,11.6-6.9,23.3-10.1,35l0.1-9.6l2.1-1.9l-4.4-1.6c0.2-0.5,0.4-0.9,0.7-1.4l7.3-9.1l-4.2,1.7c2-5.1,3.6-10.3,5.1-15.7
		c3.4-12.1,7.3-24,11.3-36c1.9-5.6,4.1-11.1,6.2-16.6c0,1.1,0.1,2.2,0.1,3.3C477.6,309.1,475.5,317.4,472.7,325.5z M505.8,245.8
		c-1.7,2.4-3.3,5-5.2,8l-0.1-3.5l-0.1-7.5c0-1,0-2.1,0.2-3.2l5.4,5.7C506,245.4,505.9,245.6,505.8,245.8z M559,291.9
		c-3.3,5.5-7.3,9.8-12.3,13.3c-2.8,2-6.2,3.3-9.3,4.8c-3.8,1.6-9.5-0.2-9.7-0.7c-0.3-0.7-0.6-1.4-0.9-2.1c0.7-5.4,5-10.4,7.8-12.5
		c0.3-1.2,2.7-1.9,4.2-2.6c8.2-4,16.5-8,25.4-12.2C562.8,284.1,561.2,288.1,559,291.9z M589.9,246.5c-0.1-0.2-0.1-0.4-0.2-0.7
		l1.1-0.2L589.9,246.5z M696.4,203.9c-0.6,1-1.3,1.9-2.4,3.3c-0.5-4.1-0.4-8.2,0.2-12.2c2.5-18.1,9.4-34.5,19.6-49.6
		c3.2-4.7,7.2-8.8,11.1-13c0.9-1,3.3-1.9,4.2-1.3c0.8,0.5,1.8,1.2,2.6,1.9c-0.1,2-0.4,4-0.9,5.8c-3.7,12.7-9.1,24.6-16,35.8
		C708.7,184.4,702.5,194.2,696.4,203.9z"/>
	<path d="M1757.9,156.3l0.4,0.6l-2.3-8.4c-0.1-0.7-0.2-1.5-0.4-2.2l21.1,15.8l-23.1-24.2c0-0.2-0.1-0.4-0.1-0.6l21.1,15.8
		l-16.7-17.5l11.5,2l-13.9-4.5l-7.6-7.9l19.2,3.4l-36.7-11.9l12.5-1.7l-24.7-2.2l-0.1-3.7l-10.3,0.5l1.7-6.3l-11.8,6
		c-0.1,0-0.2,0-0.3,0l-0.4-3.5l-10.3,0.5l4.7-4.1l-19.8,4.4l3.6-4.1l-14,3.6l2.9-3.4l-20.1,3.4l7.1-5.4l-36.8,6.5l2.5-4.8l-17.8,7
		c-0.8,0.1-1.7,0.2-2.5,0.2l1.2-4.7l-19.2,6l5.1-7.3l-24.9,9.3l6.2-3.8l-35.6,5.8c-26.5,2.8-52.9,6.1-79.3,9.1
		c-0.8,0.1-1.5,0.2-2.4,0.2c0.2-1.4,0.4-2.9,0.5-4.3c0.4-5.3,0.1-10.6,0-15.9c0-1-0.9-2.6-1.7-2.9c-0.1,0-0.2-0.1-0.3-0.1
		c0-2-0.1-4.1-0.2-6.1c0-1-0.9-2.6-1.7-2.9c-4.5-1.6-8-6.3-13.7-4.8c-0.5,0.1-1.4-0.3-1.7-0.7c-1.7-2.6-3.9-2.2-5.9-0.9
		c-2.3,1.5-2.7,3.8-1.7,6.4c0.5,1.2,1.2,2.6,1,3.8c-1.7,10.4-3.6,20.9-5.6,31.3c-0.2,0.9-1.6,2.1-2.6,2.3c-11.9,1.9-23.8,4-35.8,5.4
		c-9.4,1.1-18.7,2-28.1,2.7l8.6-4l-44.7,5.6l14.9-4.8l-45.1,4.5c-0.1,0-0.3,0-0.4,0l16.3-5l-34,1.3l20.4-2.8l-19.7-1.5l3.2-2.5
		l3.6-0.7l-2.4-0.2l2.7-2.1l-6.9,1.7l-5.8-0.6l6-6.2l-1.3,0.6l5.8-4.6l-15.2,3.7l8.5-8.8l-12.7,5.5l-0.6-3.8l-0.4,3.4l-1.8-12.5
		l-1.9,16c-0.1,0.4-0.1,0.8-0.1,1.2l-3.8-13l3.6,25.3l-8.6-14.1l6.1,15.4l-3.9-6.4l11.3,28.6l0.6,0.3c3.1,6.7,8.5,8.9,18.3,11
		c0.7,0.1,1.3,0.2,2,0.4l0.2,0.1l0.9,0.1c5.6,1,11.4,1.5,17.2,1.8l34.1,3.5l-2.9-3.7c0.7-0.1,1.4-0.1,2.1-0.2l26.5,2.1l-6.6-5.4
		c0.1,0,0.2,0,0.3-0.1l22.9-0.1l-4-3.9c1.2-0.2,2.5-0.5,3.7-0.7l26.9-3.8l-9.7-1c0.3-0.1,0.5-0.1,0.8-0.2c9-1.8,18.2-3.2,27.3-4.7
		c0.2,0,0.3,0,0.5,0c-2.2,11.6-4.5,23.1-6.7,34.6l-4.8-16.3l0.6,33.3l-6-18.9l-3.1,41.1l-0.4-2.7l-0.7,2.7l-1.5-11.8l-4.5,18.6
		l-1.3,4.5l0.2-17.4l-6.6,22.4l-0.3,0.1l-0.1-7.6l-12,15.7c-4.8,3.1-9.5,6.2-14.3,9.3c-1.5-1-3.2-1.9-4.6-3.1l2.9-0.8l-8.6-3.7
		c-0.5-0.4-1-0.7-1.5-1.1l3.1-0.5l-8.4-3.4l2.1-0.9l-3,0.5l-1.9-0.8c-0.7-0.4-1.4-0.8-2.1-1.1l5.5-1l-11.7-2.1l11-4.7l-16.1,2.9
		c-0.1,0-0.3-0.1-0.4-0.1l6-3.4l-17.3,0.1c-0.1,0-0.3-0.1-0.4-0.1l3.4-0.5l-18.8-2.5l0.3-0.7l7.4-0.5l-7-0.3l2.5-5.9
		c1.3-1.2,2.7-2.5,3.9-3.8c5.8-6,13.6-7.5,21-10.1c0.4-0.1,0.8-0.3,1.2-0.4l-2,9.1l9.7-10.3l-2,8.7l8.2-12.9l0.6,8l2.4-9.5
		l14.4,12.9l-16-19.8l2.2,0.3l11.6,10.4l-8-9.9l6.4,0.9l-8.3-3.2l-6.2-7.6l12.3,1.7l-12.5-4.8l0.5-0.5l-1,0.3l-7.3-2.8l6.1-6.6
		l-14.4,4.6l6.6-2.9l-18.3,2.7l5.1-5l-16.9,8.9l1.8-5.2l-9.9,10.3l0.1-7.1l-9.5,13.5l2-7.1l-14.7,21.2l0.5-8.2l-7,18.6l-0.3-7.3
		l-1.9,13.6l-1-5.2l-0.2,14.9l-1.6-3.8l-2.1,15.5l0.2-0.2c-2,5.1-3.7,10.3-5.3,15.6c-2.6,8.8-5.5,17.5-8.5,26.3l0.4-7.8l-3.8,17.7
		c-0.1,0.2-0.1,0.4-0.2,0.6l-5.3-0.6l-1,18.8c-0.1,0.3-0.2,0.5-0.3,0.8l-3.4-2l-2.6,17.8c-0.1,0.2-0.1,0.4-0.2,0.5
		c-1.9,4.6-4.8,8.8-7.8,14c-0.8-1.1-1.4-2.1-1.9-3.1c-0.2-4.2-0.2-8.5-0.2-12.7c0-5.1,0.2-10.3,0.3-15.4c0-1.9,0.2-3.8,0.2-5.6
		c0.1-6.2-0.1-12.4,0.1-18.5l6.9,7.8l-4.5-23.5l5.8,1.1l-3.5-8.1l4.6,3.5l-2.4-24.8l5,10.5l-2.6-24.5l10.4,5.1l-10.3-10.4l3.6,0.2
		l-1.2-1.6l5.7,2.8l-7.2-7.3l6,0.1l-8.4-3.1l2.9,0.1l-3.8-5l1.1-0.6l-1.4,0.2l-0.7-0.9l7.9,0.1l-14.4-5.4l6.3-3.1l-12.6,2
		c-0.1,0-0.3-0.1-0.4-0.1l5.6-3.3l-8.5,1.7l-11.9,2.3l8.3-6.2l-16,6l4.2-5.8l-11.2,6.3c-0.2,0-0.4,0.1-0.6,0.1l2.2-5.1l-7.1,7.1
		c-3.1,2.2-5.5,5.6-8,8.7c-5.9,7.1-11.5,14.4-17.4,21.5c-5.7,7-10.9,14.7-17.6,20.7c-6.5,6-13.5,11.5-20.6,16.8l3.7-5.7l-17.1,14.7
		l-0.9,1c-1.2,0.6-2.4,1.1-3.6,1.6l0.6-3.2l-3.3,2c1-10.8,4.7-21.1,8.5-31.3c1.1-3,2.8-6.1,7.8-6.5c1.7-0.1,3.4-0.5,5-1.1l17.6-3.9
		l-10.5-0.5c0.5-0.4,0.9-0.8,1.4-1.3l19-10.8l-10.8,0.9c0.2-0.2,0.4-0.5,0.6-0.7l19.1-14.5l-8.3,0.5l2.5-6.8l3.7-2.8l-2.7,0.2
		l2.8-7.7l-7.3,5l5.1-14.1l-4.9,3.3l0.1-1.4l-1,2.1l-1.7,1.2l0.6-12.3l-3.5,7l-8.5-11.8l1.2,8l-17.5-3l4.4,3.2l-0.8,0.2
		c-0.9,0.2-1.8,0.4-2.7,0.7l-21,5.3l12.2,0.1c-1.1,1.2-2.2,2.5-3.2,4c-0.5,0.8-1.2,1.5-1.7,2.3c0,0.1-0.1,0.2-0.1,0.3l-1.6,1.5
		l-3.4,0.9l2.5,0l-7.7,7.6l5.7-1.7c-4.7,8.8-9.4,17.6-13.8,26.6c-1.5,3-3.4,3.7-5.9,4.2c-0.2,0-0.5,0-0.8-0.2l4-5.8l-19.7,7.6
		c-0.1,0-0.2,0-0.3,0.1l-9-6.2c-0.9-1.8-1.9-3.6-3-5.3l11.5,3.6l-11.7-8.1l1.5-0.1l-3.8-1.5l-4.2-2.9c-1.3-1.5-2.7-2.8-4.1-4.2
		l9.8-0.5l-22.4-8.9l1.5-0.4l-2.6,0l-1.6-0.6c-3.6-1.8-7.5-3.3-11.6-4.6l13.5-3.9l-35.3-0.1c-3.5-0.3-7.1-0.4-10.7-0.4l7.8-10
		l0.1,7.8l9-16.8l0.1,0.9l0.9-2.6l1.3,11.7l9.2-26.4l4.2,7.7l-0.2-13.7l12.3,5.7l-2.7-9.3l0.5,0.2l-3.2-11.2l18,2l-12.3-10.2
		l10.1,1.1l-9.3-7.7l8.5-2l-11.1-7l8.9-2.1l-6.9-4.4l4.1-0.2l-15.3-7c-0.3-0.5-0.7-1-1.1-1.5l14.1-0.6l-20.1-9.2l6.8-2.6l-10.1,1
		l-5.2-2.4c-1-0.6-2-1.2-3-1.7l16.2-6.1l-24.6,2.5l4.1-5.2l-8.2,5.7l-1.4,0.1c-1.5,0-3,0.1-4.5,0.4l11.8-15.2l-29.6,20.5l3.8-12.6
		l-18.6,23.6c-0.3,0.2-0.6,0.5-0.8,0.7l0.9-9.2l-7,10.9l-3.7-6.4c-0.3-0.8-0.8-1.6-1.3-2.3l0.7-0.4l3.4,2.2l-1.8-3.1l5.4-2.9
		l-7.8-1.2l-0.8-1.4c-0.3-0.8-0.8-1.6-1.4-2.3l7.8-4.1l-10.1-1.6l3.9-7.1l-8.9,6.3l-0.5-0.1c-0.3-0.2-0.7-0.4-1-0.5l8.2-14.8
		l-13,9.3l4.2-37.6l-5,16.3l2.8-25.4l-14.6,47.3l-20-44.4l2.5,9.8l-0.3-0.7l15.3,59.1c0,0.2,0,0.3,0,0.5l-27.4-44.3l5.2,13.9l-3-4.8
		l21.2,57l-24.5-26.8l7.2,14.6l-5-5.5l12.4,24.9l-2.5-3.6l8.7,39.3c0,0.1,0,0.2,0,0.3l-10.4-7.8l7.4,32.3c-0.1,0.8-0.2,1.6-0.3,2.3
		l-11.3-11.5l6.4,37.4l-7.1-10.8l1.6,35.1c-0.3,1.5-0.6,2.9-0.9,4.4l-8.3-14l3,41.6c-0.1,0.3-0.1,0.6-0.2,0.8l-8-9.4l3.6,47
		c0,0.9,0.8,2.3,1.6,2.8c0,0,0.1,0,0.1,0l0.5,6.3c0,0.9,0.8,2.3,1.6,2.8c4.1,2.2,8.2,4.7,12.6,6.1c0.5,0.1,1,0.3,1.5,0.4l-14.8,18.2
		c0,0,0,0,0,0c-1.1,1.2-2.3,2.4-3.4,3.7l-1.2-5.1l-0.1,0.3l-2.1-9.3l-4.9,25.1l-3.2-3.5l-2.3,11.8l-5.8-13l0.4,21.4l-5.1-8.4
		l-1.4,21.9l-6.9-14.2l7,42.1l-8.3-9.9l5.1,12.6l-2.9-3.5l4.9,11.9l-7.7-3.1l9.4,7.3l2.3,5.6l-9.5-3.9l3.3,2.6l-12.5-3.9l22.7,11.9
		l6,4.7c0.4,0.4,0.8,0.8,1.3,1.3l-27.7-8.7l14,7.3l-29.4-5.5l38.1,10l17,8.9l-52.9-9.8l50.5,13.3l-3.6,1l6.8-0.1l14.3,3.8
		c0.2,0.1,0.4,0.1,0.6,0.2l-19.4,5.2l39.8-0.7l-5.7,7.2l30.5-9.6c-0.1,0.1-0.2,0.3-0.3,0.4c2.5-0.8,5-1.6,7.4-2.4l-3.7,6.5l22-12.6
		l-1.4,3.6l4.3-5.2l4.5-2.6l-6.6,16.9l20.2-24.5c1.7-1.3,3.4-2.7,5-4.1l0,0.3l0.2-0.5c0.9-0.8,1.9-1.7,2.8-2.5l-0.9,12l8.6-17.9
		c0.3-0.2,0.5-0.3,0.8-0.5l-0.1,1.1l0.9-1.5c0.1,0,0.1-0.1,0.2-0.1c0.3-0.2,0.6-0.5,0.9-0.8c0.5-0.5,1-1,1.5-1.5l-1.3,13.1l19-31.6
		c1.8-1.9,3.5-3.8,5.1-5.8l-3.4,13.4l15.8-30.4c1.4-2,2.7-4,4.1-6c4.8-7.3,9.8-14.6,13.4-22.5c4.7-10.3,8.3-21,12.1-31.7
		c4.3-12.3,7.5-24.9,6.8-38c-0.6-11.3-2-22.5-3-34.2l13.1-3.5c-0.3,3.4-0.5,6.9-0.4,10.3l-0.2,8.6l-0.4,12.8l2.5-3.1l-0.3,12.1
		l3.8-4.6l5.7,11l1.2-3.6l11.6,8.3l-0.1-4.2l16.7,2.7l-7.2-4.6c0.5-0.2,1-0.4,1.4-0.7l18.8-2.1l-8.9-3.1l7.8-0.8l-2.4-4.2l8.2,0.5
		l-1.1-5.5l9.9,4.1l-6.7-8c0.3-0.3,0.6-0.6,0.9-0.9l2.1-0.8l1.5,0.6l-0.8-0.9l10.3-4.2l-8.6,0.7c2.6-2.8,5-5.7,7.4-8.8
		c1.7-2.2,3.6-4.2,5.7-6.3l0.6,20.6l1.8-6.8l0.4,15.9l2.4-9.3l5.2,14.8l1-4.1c0.3,0.4,0.7,0.8,1.1,1.1l4.5,10.8l1.7-6.2
		c0.6,0.3,1.3,0.6,1.9,0.9l7.8,7.9l0.4-6.3c0.3,0,0.7-0.1,1-0.1l6.5,2.1l1-6.6c0.8-0.7,1.6-1.3,2.4-1.9c0.4,7.7,0.7,15.5,1.7,23.2
		l0.4,21.7l2-4.5l0.2,13.5l2.1-4.7l5.3,17.8l0.6-6.1l6.7,12.7l2.7-4.1c0.4,0.2,0.7,0.3,1.1,0.5l11.7,8.4l1.2-7.5l8.3-2.6l-1.5-4.5
		l25.6-22l-16,5.3l2.8-4.9l11-9.5l-7,2.3l8.5-15l-6,5.8l8.3-16.9l-3.1-2.1c0-0.2,0.1-0.3,0.1-0.5l10.4-2.5l-8.9-3
		c0-0.1,0.1-0.2,0.1-0.3l2.4-4.7l4.3-1l-3.2-1.1l9.2-18.1l-7.6,3.3c0-0.1,0.1-0.3,0.1-0.4l0,0.1l9-14.6l-3.2,1l10-8.3l-4-0.9
		l8.9-4.9c0.3,0.1,0.7,0.3,1,0.4l13,8.6l-2.6-5.9l15.1,6.8l-3.5-5c0.3,0,0.6,0.1,0.9,0.1l16.6,8.4l-4.1-5.9l8.5,3.2l-0.1-0.4
		c4.6,2,8.9,4.7,12.5,8.7c-0.5,0.6-1.1,1.3-1.8,2.1c-0.4,0.5-0.8,1-1.3,1.5c-5.1,5.5-10.1,11-15.3,16.4c-3.6,3.8-7.6,7.1-11,11
		c-8.2,9.5-16.2,19-24,28.8c-1.9,2.4-3.8,4.8-5.7,7.3l0.1-5.2l-6.4,14.4c-0.3,0.5-0.6,1.1-1,1.6c-0.2,0.4-0.5,0.9-0.7,1.3l-0.1-3.7
		l-1.6,6.9c-0.1,0.2-0.2,0.5-0.3,0.7l-0.3-16.6L1258,368l-2.7-17.3l-0.1,4.5l-2.1-13.5l-0.5,39.1l-0.5-2.4l0,2.1l-2.2-11.2l-0.4,24
		l-12.8-20.2l6.5,16l-4.3-6.9l8.9,21.6l-15.1-12.6l17.5,18.4l2.1,5.1l-17.5-14.5l13.1,13.8l-43.5-8.4l47.4,12.5l2.7,2.9l-15.8,0
		l-32.1-6.2l23.5,6.2l-4.2,0l9.9,1.5l29.2,7.7l-36.9-0.1l30.3,4.6l-1.5,0.5l2.9-0.3l17.6,2.7l-18.3,6.7l35.5-4.2l-6.6,9.7l22.2-14.8
		l0.1,4.8l9.3-10c0.1,0,0.1-0.1,0.2-0.1l0.1,5.9l5.5-8.1l1.3,4.4l5.4-11.3l0.5,4l8.1-14.9c0,0,0,0,0,0l1,9.6l11.9-28.2l1.4,10.8
		l4-21.3l3.7,5.9l0.9-17.2l4.1,5.9l0.8-23.2l3.7,7.5l-2.1-20.9c0.1-0.6,0.2-1.2,0.3-1.9l4,5.6l-2.6-20.8c0-0.2,0-0.3,0-0.5
		c0.2-7.1-1.2-13.9-3.2-20.6c-1.3-7.2-3.7-14.1-6.3-21c4.9-3.6,9.7-7.2,14.6-10.7l13.6-4.9l-7.6,0.5c0.3-0.2,0.7-0.5,1-0.7l6.4-3.1
		l-1.9-0.2c1.3-1,2.6-1.9,3.9-2.9l-2.1,20.8l0.5,7.3l0.2,3.7c-0.1,0.7-0.2,1.3-0.3,2c-0.6,3.9-1.6,7.7-2.4,11.5
		c-1.5,7.1-3.3,14.1-4.5,21.2c-1.3,8-2.1,16.1-3.2,24.2c-0.4,3-1.3,6-1.6,9l-14.5,77.8l7.4-18.8l-5.2,27.9l4.6-11.8l-4,23.2l5-7
		l-2.8,16.1l6.7-9.4l6,24.1l1.5-12.9c1.3,2.1,2.8,3.8,4.5,5.2l24.2,28.3l-13.2-21.9l11,12.9l-8.6-14.2l43.3,1l-30.1-7.7l3.5-1.9
		l24.3,0.6l-17.2-4.4l16.5-8.8l-15.8,0.7c0.8-1.2,1.6-2.4,2.3-3.7l11.3-6.1l-3.1,0.1l11.3-5.5l-13.4-1.5c0.2-0.7,0.5-1.3,0.7-2
		l0.6-0.8l9.9-4.8l-5.4-0.6l17.6-21l-19.4,15.9l6.2-11.9l11-13.1l-7.3,6l13.3-25.5l-9.9,5.7l7.7-14.8l-0.3,0.2l6.5-8.6l-11.2,5.1
		c0.5-1.4,0.9-2.8,1.4-4.2l7.6-10l-1.9,0.9l5.1-7.3l-5.1,0.1c1.3-3.7,2.7-7.4,4-11.1c2.4-7.2,4.7-14.4,7.1-21.6l6-8l-2.3-1.7
		l4.2-5.8l-2.3-0.7c0.2-0.6,0.4-1.2,0.7-1.8l6.9-9.6l-2.9-0.7c0.2-0.6,0.5-1.1,0.7-1.7l8.7-10.6l-3.3-1.3c0.1-0.2,0.2-0.3,0.2-0.5
		l11.6-15.7l-3.7-1.4c0.3-0.6,0.5-1.2,0.8-1.8l10.1-11.5l-4.6-0.5l6.1-10.6l-2.7,3.1c2.8-6.1,5.5-12.1,8.1-18.3
		c1.8-4.2,2.5-9,3.7-13.5c-0.4-0.2-0.7-0.3-1.1-0.5c-0.7,0.5-1.6,0.9-2,1.6c-1.5,2.4-3,4.8-4.5,7.2c0.6-1.3,1.1-2.6,1.7-3.9
		c1.8-4.2,2.5-9,3.7-13.5c-0.4-0.2-0.7-0.3-1.1-0.5c-0.7,0.5-1.6,0.9-2,1.6c-3.5,5.7-7.1,11.3-10.6,17l1.4-11l-5.4,16l-0.8-11.1
		l-2.7,18.4l-2.2-5.5l-1.8,10.6l-1.3-11.9l-1.9,19.1l-2.4-7.9l-0.7,16l-1.4-8.8l-6.3,25.2c-0.3,0.7-0.6,1.3-0.9,2l-0.2-8.9l-7,23.7
		l-0.1,0.5c-6.9,14.8-13.8,29.7-20.4,44.6c-5.5,12.4-9.5,25.6-13.7,38.5c-2.8,8.8-4.3,18.1-7.3,26.8c-4.2,12.6-8.7,25.2-14.1,37.4
		c-3.2,7.4-8.2,14-12.5,20.9c-0.6,0.9-1.6,1.6-2.7,2.6c-0.6-11.6-1.2-23.3-1.8-34.9c-0.1-1.2,0-2.4,0.2-3.5
		c1.3-8.7,2.7-17.4,3.9-26.1c1.7-11.9,3.1-23.9,5.1-35.8c1.6-9.3,3.8-18.6,5.6-27.8c0.6-2.9,1.2-5.9,1.7-8.8l10.6-13l-7.8-2.1
		l5.6-6.9l-2-0.6l9.4-19.2l-6.1-1.1l3.4-6.9l3.1-2.3l-6.2,0.1l3.8-9l0.2-0.1l-0.1,0l6.5-15.6l-7.6,5.3l0.9-3.5l4.5-10.9l-2.2,1.5
		l4-16l-5.1,6.1c0.5-3.6,1.1-7.2,1.8-10.7c0.2-0.8,0.4-1.6,0.6-2.5l0.1-0.3c1.6-6.1,4.1-12.1,5.5-18.2c2.5-11,4.5-22,6.6-33.1
		c0.4-2.2,0.6-4.1,3.7-4.3c7.2-0.5,14.5-1.1,21.7-2c11.2-1.4,22.4-3,33.5-4.7c5.8-0.9,11.6-2.3,17.5-3.1c6.1-0.8,12.2-1.3,18.3-1.8
		c15.8-1.3,31.6-2.7,47.4-4c4.2-0.3,8.5-0.7,12.7-0.9c8.1-0.3,16.2-0.3,24.3-0.9c5.9-0.4,11.7-1.4,17.6-2l33.4,4l-8.6-4.3l32.9,4.7
		l-5.8-4.3c0.2,0,0.3,0,0.5,0l16.4,6.7l-3.2-5.7c0.4,0,0.8,0.1,1.2,0.1l17.1,7.2l-2.4-4.6c0.2,0,0.3,0.1,0.5,0.1l17.6,14.5l0.5-7.6
		l2.6,6.1c-3.3,3-6.6,6.1-10.4,8.3c-4.6,2.8-10,4.5-15,6.8c-0.8,0.4-1.7,1.5-1.6,2.2l-11.7,3l13.7-1l-5.9,5.3l14.6-3.8
		c0.5,0,0.9,0,1.3,0.1c-2.7,1.1-5.5,2.2-8.1,3.4c-0.8,0.4-1.7,1.5-1.6,2.2l-11.7,3l13.7-1l-5.9,5.3l14.6-3.8
		c2.4,0.2,4.6,0.1,6.7-0.3l-4.6,7.5l13.8-9.8l-1.3,7.8l10.1-18l3.5,11.5l-0.7-16.6l5.3,7.3L1757.9,156.3z M1101.9,218
		c2.4-4.1,4.8-6,8.6-6.6c1.9-0.3,5.2,0,3.6,6.4c-1.6,6.4-13,12.3-20,15.8C1094.2,233.6,1099.6,222.1,1101.9,218z M920.5,106.4
		l2.7,1.8l-3.7,5.9C919.8,111.5,920.1,109,920.5,106.4z M874.8,332.8c5,0.7,8.9-1.2,10-7.7c2-11.6,4-23.2,5.8-34.9
		c1.6-9.9,3.1-19.9,4.6-29.8l11.4-30.1l-7.5,5l16.4-35.7l-7.3,2l3-6.6l29.4-32.6l-11.7,1.5l9.5-10.6l-1.9,0.2l5.7-5.4l-8.4,1.4
		c0.3-0.5,0.7-1,1-1.5l16.3-11.7l-8.7,2c1.8-2.1,3.7-4.1,5.6-6.1c7.5-7.7,15.2-14.8,26.1-17.8c4.2-1.2,7.7-0.9,9.8,1.2
		c-0.2,3.8-1.1,7.7-2.4,11.3c-4.1,11.4-10.7,21.4-18.6,30.4c-12.6,14.3-25.7,28.1-38.5,42.2c-1.5,1.6-3.3,3.6-3.6,5.6
		c-1,5.1-0.9,9.9,1.7,13.8c-0.2,5.5,1.6,10.4,7.3,13.8l25.7,15.7l-4.6-10.2l0.6,0l1.9,1.1l-0.5-1.2l21.8-0.4l-6.3-5.7
		c0.3-0.1,0.5-0.1,0.8-0.2l30.5,5.5l-3.4-6.2c0.2,0,0.4,0.1,0.6,0.1l19,12.5l-2.9-7.9c6.6,3.4,11.1,8.5,14.2,16.2
		c-1.5,0.5-3.1,1-4.6,1.6c-1.7,0.7-3.3,1.3-5,1.9l2-3.9l-18.3,10.2l-0.9-4.1l-19.1,14.9c-0.1,0.1-0.2,0.1-0.4,0.2l-2.1-3.6
		l-34.9,22.4l-0.2,0.5c-5.5,2.9-11,5.5-16.4,8.6c-5.1,3-10,6.6-14.9,10c-4.7,3.3-9.2,6.9-14.1,9.9c-8.8,5.5-17.4,11.1-25.1,18
		L874.8,332.8z M1032,291.1c-0.3,27-12.1,50.4-24.1,73.4c-11.4,21.8-27.4,40.5-46.4,56.2c-8.6,7.1-17.8,13.7-27.3,19.7
		c-5.4,3.4-11.9,5.2-17.9,7.6c-1.8,0.7-3.6,1.4-5.3,2.7c1,0,2.1,0,3.3-0.1c-0.3,0.5-0.3,0.8-0.5,0.8c-3.5,0.8-7,2.4-10.4,2.2
		c-9.5-0.7-18.7,2.8-28.2,1c-7.5-1.4-14-4.2-18.9-9.3l-0.5-0.7l-4.2-7.2c-0.1-6.2-0.5-12.4,0.9-18.3c1.8-7.3,5.1-14.6,9.1-21
		c7.5-12.3,17.5-22.7,28.6-31.9c4.9-4.1,10-7.9,15.1-11.7c6.9-5.2,13.8-10.6,20.9-15.5c2.2-1.5,4.4-3,6.6-4.4l23.8-9.6l-7.5-1
		l34.4-13.4l-14,1c0.1-0.1,0.2-0.1,0.3-0.2l25.9-6.8l-11.1-1l23-2l-10.7-3.5l32.2-12.1l-9.4-1.5l12.5-2.9
		C1032.1,284.8,1032,288,1032,291.1z M1042.9,247.4c-0.6-1.4-1.1-2.4-1.5-3.3l5.7,1.8C1045.7,246.3,1044.2,247,1042.9,247.4z
		 M1178.7,272.1l1.3-9l-7.5,18c-0.3,0.4-0.6,0.7-0.9,1.1l-0.7-3l-5.5,9.4l-0.6-3.3l-0.4-0.1c0.1-0.6,0.2-1.2,0.3-1.7
		c1.9-7.9,3.7-16,6.7-23.5c2.3-6,6.1-11.5,9.5-17c2.6-4.2,5.2-8.7,10.1-10.9c0.3-0.1,0.6-0.3,1-0.4
		C1190,246.1,1186,259.7,1178.7,272.1z M1288.7,233.8c-0.4-0.1-0.9-0.2-1.3-0.3l1-0.1l0.7,0.4L1288.7,233.8z M1348.3,324.4
		c-1.2,27.3-6.5,53.1-27.8,73.2c-5.1,4.8-11,7.6-16.2,11.9c-3.7,3-9.3,4.2-14.2,5.1c-3,0.5-6.4-1.2-9.5-2.1l-2.6-2l0.9-2.8l-3.5,0.8
		l-0.3-0.2l5-10.4l-4-0.2l7.8-9.1l-4.8-0.7l8.5-13.9l-6,4.3l9.3-15l-4.2,1.3c0.2-0.4,0.5-0.9,0.7-1.3l10.7-10.2l-5,0.3
		c0.3-0.5,0.7-1,1-1.6l15.4-10.8l-9.3,2.1c0.1-0.1,0.2-0.2,0.3-0.4l11.6-6.3l-6.6-0.4l10.9-8.9l-2.8-2.1l13.5-6.6l-4.4-3.5
		c0.1-0.2,0.3-0.3,0.4-0.5l14.9-10.2l-5.9,0.7c0.8-0.8,1.6-1.7,2.4-2.5c3-3.1,6.6-5.8,10.6-9.1c0.2,0.7,0.3,1.4,0.5,2.1
		c0.3,1.6,0.6,3.2,0.9,4.8C1347.4,308.4,1348.7,316.4,1348.3,324.4z M1743.9,145.1c-0.4,0.3-0.8,0.7-1.1,1l-0.2-2.8
		c0.5,0.5,1,1.1,1.5,1.6C1744,145,1744,145.1,1743.9,145.1z"/>
</g>
</svg>
